<svg xmlns="http://www.w3.org/2000/svg" color="#202020" width="24" height="24" viewBox="0 0 24 24">
    <path fill="currentColor" fill-rule="evenodd" d="M6 0a3 3 0 0 0-3 3v20.943l1.351-.507 1.592-.597 1.61.805.447.224.447-.224L10 22.868l1.553.776.447.224.447-.224L14 22.868l1.553.776.447.224.447-.224 1.61-.805 1.592.597 1.351.507V3a3 3 0 0 0-3-3H6ZM5 3a1 1 0 0 1 1-1h12a1 1 0 0 1 1 1v18.057l-.649-.243-.408-.153-.39.195-1.553.776-1.553-.776-.447-.224-.447.224-1.553.776-1.553-.776-.447-.224-.447.224L8 21.632l-1.553-.776-.39-.195-.408.153-.649.243V3Zm9 3h-4V4h4v2Zm2 4H8V8h8v2Zm-8 4h8v-2H8v2Zm4 4v-2h4v2h-4Z" clip-rule="evenodd"/>
</svg>
