<svg xmlns="http://www.w3.org/2000/svg" color="#202020" width="24" height="24" viewBox="0 0 24 24">
    <path d="M12 15a3 3 0 1 0 0-6 3 3 0 0 0 0 6Z"/>
    <path fill-rule="evenodd" d="m14.417 1.363.185 2.019c.577.174 1.13.404 1.652.685l1.558-1.297a1.5 1.5 0 0 1 2.02.092l1.305 1.305a1.5 1.5 0 0 1 .093 2.02l-1.297 1.559c.28.522.511 1.075.685 1.652l2.019.185A1.5 1.5 0 0 1 24 11.077v1.846a1.5 1.5 0 0 1-1.363 1.494l-2.019.185a8.947 8.947 0 0 1-.685 1.652l1.297 1.559a1.5 1.5 0 0 1-.092 2.02l-1.305 1.305a1.5 1.5 0 0 1-2.02.092l-1.56-1.297a8.944 8.944 0 0 1-1.651.685l-.185 2.019A1.5 1.5 0 0 1 12.923 24h-1.846a1.5 1.5 0 0 1-1.494-1.363l-.185-2.019a8.949 8.949 0 0 1-1.652-.685l-1.56 1.297a1.5 1.5 0 0 1-2.02-.092l-1.304-1.305a1.5 1.5 0 0 1-.093-2.02l1.298-1.56a8.944 8.944 0 0 1-.685-1.651l-2.019-.185A1.5 1.5 0 0 1 0 12.923v-1.846a1.5 1.5 0 0 1 1.363-1.494l2.019-.185c.174-.577.404-1.13.685-1.652L2.77 6.187a1.5 1.5 0 0 1 .092-2.02l1.306-1.305a1.5 1.5 0 0 1 2.02-.092l1.558 1.297a8.944 8.944 0 0 1 1.652-.685l.185-2.019A1.5 1.5 0 0 1 11.077 0h1.846a1.5 1.5 0 0 1 1.494 1.363Zm2.079 5.104L18.74 4.6l.66.66-1.869 2.245.64 1.188c.217.406.396.836.531 1.284l.39 1.29 2.907.267v.934l-2.907.266-.39 1.291a6.949 6.949 0 0 1-.531 1.283l-.64 1.189 1.869 2.245-.66.66-2.245-1.868-1.189.639a6.95 6.95 0 0 1-1.283.531l-1.29.39L12.466 22h-.934l-.266-2.907-1.291-.39a6.936 6.936 0 0 1-1.283-.532l-1.19-.639-2.245 1.869-.66-.66 1.87-2.245-.64-1.189a6.946 6.946 0 0 1-.531-1.283l-.39-1.29L2 12.466v-.934l2.907-.266.39-1.291c.135-.448.314-.878.532-1.283l.638-1.189L4.6 5.26l.66-.66 2.245 1.868 1.189-.639a6.945 6.945 0 0 1 1.283-.531l1.29-.39L11.534 2h.934l.266 2.907 1.291.39c.448.135.877.314 1.283.531l1.189.64Z"/>
</svg>
