<svg xmlns="http://www.w3.org/2000/svg" color="#202020" width="24" height="24" viewBox="0 0 24 24">
    <path fill-rule="evenodd" clip-rule="evenodd" d="M12 2C9.266 2 7.05 4.239 7.05 7s2.216 5 4.95 5 4.95-2.239 4.95-5S14.734 2 12 2ZM9.25 7c0-1.534 1.231-2.778 2.75-2.778S14.75 5.466 14.75 7 13.519 9.778 12 9.778 9.25 8.534 9.25 7ZM22.45 16.038 21.9 17l.55-.962-.003-.002-.004-.003-.014-.008-.049-.027-.175-.097a19.9 19.9 0 0 0-.647-.333 26.119 26.119 0 0 0-2.297-.997c-1.898-.72-4.512-1.46-7.261-1.46-2.712 0-5.3.585-7.191 1.158-.95.288-1.735.576-2.285.793a21.686 21.686 0 0 0-.817.343l-.048.021-.013.006-.004.002-.002.001.46 1.01-.461-1.01-.639.298v1.643c0 .586 0 1.091.034 1.507.035.44.114.877.326 1.297a3.317 3.317 0 0 0 1.442 1.457c.416.214.849.293 1.283.329.412.034.913.034 1.493.034h12.844c.58 0 1.08 0 1.492-.034.435-.036.868-.115 1.284-.33.621-.319 1.126-.829 1.442-1.456.212-.42.29-.857.326-1.297.034-.416.034-.921.034-1.507v-1.018l-.55-.32ZM3.2 17.333v-.15l.126-.051c.504-.2 1.232-.467 2.115-.734 1.776-.539 4.138-1.065 6.559-1.065 2.384 0 4.72.649 6.489 1.318a23.937 23.937 0 0 1 2.31 1.017c0 .457-.005.778-.025 1.034-.025.302-.066.414-.094.47-.105.208-.274.378-.48.485-.055.028-.166.07-.465.094-.311.026-.72.027-1.355.027H5.62c-.634 0-1.044-.001-1.355-.027-.3-.024-.41-.066-.464-.094a1.106 1.106 0 0 1-.481-.486c-.028-.055-.07-.167-.094-.469-.025-.314-.026-.728-.026-1.369Z"/>
</svg>
