<?xml version="1.0" standalone="no"?>
<!DOCTYPE svg PUBLIC "-//W3C//DTD SVG 20010904//EN"
 "http://www.w3.org/TR/2001/REC-SVG-20010904/DTD/svg10.dtd">
<svg version="1.0" xmlns="http://www.w3.org/2000/svg"
 width="660.000000pt" height="912.000000pt" viewBox="0 0 660.000000 912.000000"
 preserveAspectRatio="xMidYMid meet">

<g transform="translate(0.000000,912.000000) scale(0.100000,-0.100000)"
fill="#000000" stroke="none">
<path d="M3466 9104 c-208 -7 -389 -15 -401 -18 -12 -3 -28 -19 -35 -36 -20
-48 3 -69 187 -171 501 -276 812 -501 1141 -823 271 -266 489 -524 701 -826
319 -455 547 -887 786 -1486 105 -263 122 -296 157 -315 42 -23 109 46 163
167 315 704 464 1558 426 2439 -9 200 -16 283 -31 342 -71 279 -245 410 -722
547 -383 110 -797 166 -1388 186 -354 12 -489 11 -984 -6z"/>
<path d="M2160 8804 c-403 -35 -756 -146 -1010 -317 -373 -252 -580 -727 -470
-1082 76 -244 373 -607 695 -850 208 -157 961 -636 1855 -1179 193 -117 422
-236 455 -236 12 0 28 6 34 14 6 7 35 159 65 337 30 178 67 380 81 449 114
541 272 961 487 1298 116 182 123 204 89 278 -47 104 -382 451 -620 643 -378
304 -844 545 -1211 626 -73 16 -350 28 -450 19z"/>
<path d="M356 7198 c-22 -35 -122 -352 -172 -543 -115 -444 -169 -828 -181
-1280 -15 -593 68 -1054 261 -1450 155 -316 279 -468 1016 -1240 157 -165 421
-444 585 -620 164 -176 452 -484 639 -685 455 -487 449 -480 537 -599 139
-187 224 -377 255 -568 19 -120 29 -147 65 -177 38 -32 106 -39 274 -26 179
13 288 32 450 76 442 121 862 344 1210 644 285 245 619 647 746 897 103 203
144 388 136 613 -8 214 -50 374 -152 588 -200 418 -629 856 -1245 1274 -251
170 -411 266 -1990 1195 -1125 662 -1193 704 -1456 900 -346 258 -635 555
-827 848 -129 197 -125 193 -151 153z"/>
<path d="M577 1233 c-18 -17 -2 -51 56 -121 279 -343 736 -647 1323 -881 198
-78 296 -108 429 -131 288 -49 543 -30 604 44 19 23 25 89 11 132 -25 79 -170
282 -402 565 -80 98 -140 162 -160 172 -38 18 -121 28 -533 63 -513 43 -876
87 -1159 139 -141 27 -159 29 -169 18z"/>
</g>
</svg>
